<?xml version="1.0" standalone="no"?>
<!DOCTYPE svg PUBLIC "-//W3C//DTD SVG 20010904//EN"
 "http://www.w3.org/TR/2001/REC-SVG-20010904/DTD/svg10.dtd">
<svg version="1.0" xmlns="http://www.w3.org/2000/svg"
 width="421.000000pt" height="421.000000pt" viewBox="0 0 421.000000 421.000000"
 preserveAspectRatio="xMidYMid meet">
<metadata>
Created by potrace 1.14, written by Peter Selinger 2001-2017
</metadata>
<g transform="translate(0.000000,421.000000) scale(0.100000,-0.100000)"
fill="#000000" stroke="none">
<path d="M2000 3433 c-181 -23 -360 -91 -481 -183 -68 -51 -209 -204 -209
-226 0 -6 -7 -17 -15 -24 -8 -7 -13 -16 -10 -20 3 -5 0 -10 -5 -12 -6 -2 -12
-10 -14 -18 -1 -8 -10 -32 -19 -53 -14 -32 -26 -68 -43 -132 -4 -15 -22 -96
-29 -135 -20 -105 -25 -279 -10 -382 10 -72 9 -78 -7 -78 -10 0 -18 4 -18 9 0
5 -13 12 -30 16 -58 13 -81 -37 -75 -162 3 -91 7 -117 31 -218 7 -33 14 -63
14 -67 0 -5 -30 -8 -66 -8 -36 0 -74 -5 -85 -10 -35 -19 -49 -63 -44 -137 2
-37 6 -129 10 -203 3 -74 7 -164 10 -200 2 -36 7 -126 10 -200 l5 -135 -60
-65 c-33 -35 -60 -70 -60 -77 0 -7 -3 -13 -8 -13 -16 0 -91 -213 -103 -295 -1
-5 -5 -20 -10 -31 -4 -12 -10 -40 -14 -62 l-6 -40 167 -2 c92 0 172 -4 178 -7
14 -9 2166 -10 2193 -1 12 4 99 8 193 9 l171 1 -7 42 c-18 111 -93 344 -121
377 -7 8 -13 20 -13 26 0 6 -29 42 -65 80 l-66 68 7 120 c3 66 8 152 9 190 1
39 6 126 10 195 17 298 17 308 -14 341 -26 26 -34 29 -96 29 l-67 0 6 33 c4
17 9 41 11 52 9 41 15 71 21 95 10 44 16 169 10 204 -12 65 -59 93 -102 61
-20 -15 -49 -20 -40 -7 7 12 18 120 21 201 2 79 -18 261 -35 326 -6 22 -13 54
-16 70 -10 51 -62 177 -101 243 -31 53 -146 180 -203 226 -43 35 -163 103
-188 107 -4 0 -11 4 -17 9 -12 9 -127 46 -170 54 -16 4 -41 9 -55 12 -29 6
-243 12 -280 7z"/>
</g>
</svg>
